<svg id="Capa_1" enable-background="new 0 0 511.93 511.93" height="512" viewBox="0 0 511.93 511.93" width="512" xmlns="http://www.w3.org/2000/svg"><g id="XMLID_1139_"><g id="XMLID_264_"><path id="XMLID_269_" d="m356.909 268.293-50.655-50.655c5.998-3.132 11.002-7.894 14.467-13.896 4.813-8.336 6.091-18.048 3.6-27.346s-8.454-17.068-16.79-21.881l-5.138-2.967c4.602-3.04 8.475-7.122 11.313-12.038 9.935-17.208 4.018-39.292-13.19-49.228l-8.824-5.095v-49.463c-.002-19.699-16.028-35.724-35.726-35.724s-35.725 16.025-35.725 35.724v15.104c-2.39.15-4.782.537-7.148 1.17-9.298 2.491-17.069 8.455-21.882 16.791-9.935 17.208-4.018 39.292 13.19 49.228l5.138 2.966c-4.602 3.04-8.475 7.122-11.313 12.038-9.935 17.208-4.018 39.292 13.19 49.228l8.601 4.966c-1.072 11.486-6.058 22.143-14.317 30.402l-50.678 50.678c-55.66 55.66-55.66 146.227 0 201.887 26.923 26.923 62.772 41.75 100.943 41.75 21.243 0 42.546-4.808 61.604-13.904 4.984-2.379 7.096-8.348 4.717-13.332s-8.348-7.098-13.332-4.717c-16.384 7.819-34.707 11.953-52.988 11.953-32.829 0-63.655-12.747-86.801-35.893-47.862-47.862-47.862-125.739 0-173.602l50.421-50.421 22.237 22.237-50.422 50.421c-35.6 35.602-35.6 93.528 0 129.129 17.801 17.8 41.183 26.699 64.564 26.699s46.764-8.899 64.564-26.699c35.601-35.601 35.601-93.527 0-129.129l-88.785-88.784c3.091-5.644 5.365-11.689 6.779-17.989l32.968 19.034c3.767 2.175 7.817 3.609 11.98 4.319 2.522 3.767 5.4 7.289 8.617 10.506l50.678 50.678c36.609 36.608 46.281 92.676 24.069 139.515-2.367 4.99-.24 10.954 4.75 13.32 1.384.656 2.843.967 4.278.967 3.743 0 7.332-2.11 9.042-5.717 25.828-54.462 14.577-119.657-27.996-162.23zm-50.521 50.521c27.803 27.803 27.803 73.042 0 100.844-27.8 27.803-73.04 27.803-100.844 0-27.803-27.802-27.803-73.041 0-100.844l50.422-50.422zm-50.422-298.814c8.671 0 15.725 7.054 15.725 15.724v37.918l-31.251-18.043c-.065-.038-.133-.071-.198-.108v-19.767c-.001-8.67 7.053-15.724 15.724-15.724zm-47.435 58.788c2.142-3.709 5.601-6.363 9.738-7.472 1.382-.37 2.783-.553 4.177-.553 2.778 0 5.521.729 7.992 2.155l60.076 34.685c7.658 4.422 10.291 14.249 5.87 21.907-2.143 3.71-5.601 6.364-9.737 7.473s-8.459.54-12.17-1.603l-60.076-34.685c-7.658-4.421-10.291-14.248-5.87-21.907zm94.868 114.955c-2.141 3.709-5.599 6.363-9.737 7.472-4.14 1.109-8.46.539-12.169-1.603l-60.076-34.685c-7.658-4.422-10.291-14.249-5.87-21.907 2.142-3.71 5.601-6.363 9.738-7.473 1.382-.37 2.783-.553 4.177-.553 2.778 0 5.521.729 7.992 2.155l60.076 34.686c3.71 2.142 6.363 5.6 7.472 9.737s.54 8.46-1.603 12.171z"/><path id="XMLID_589_" d="m350.065 453.109c-2.63 0-5.2 1.07-7.069 2.93-1.86 1.86-2.931 4.431-2.931 7.07 0 2.63 1.07 5.21 2.931 7.07 1.869 1.859 4.439 2.93 7.069 2.93 2.641 0 5.21-1.07 7.07-2.93 1.87-1.86 2.93-4.44 2.93-7.07s-1.06-5.21-2.93-7.07c-1.86-1.859-4.429-2.93-7.07-2.93z"/></g></g></svg>